<svg width="50" height="50" viewBox="0 0 50 50" fill="none" xmlns="http://www.w3.org/2000/svg">
<g clip-path="url(#clip0_101_31)">
<path d="M1.55498 33.6957C5.0873 43.2156 14.2509 50.0001 25 50.0001C35.7491 50.0001 44.9127 43.2156 48.445 33.6957L25 31.5219L1.55498 33.6957Z" fill="#FFDA44"/>
<path d="M25 9.53674e-05C14.2509 9.53674e-05 5.0873 6.78447 1.55498 16.3045L25 18.4783L48.445 16.3044C44.9127 6.78447 35.7491 9.53674e-05 25 9.53674e-05Z" fill="black"/>
<path d="M1.55498 16.3045C0.550098 19.0128 0 21.9421 0 25.0001C0 28.0581 0.550098 30.9874 1.55498 33.6957H48.4451C49.45 30.9874 50 28.0581 50 25.0001C50 21.9421 49.45 19.0128 48.445 16.3045H1.55498Z" fill="#D80027"/>
</g>
<defs>
<clipPath id="clip0_101_31">
<rect width="50" height="50" fill="white"/>
</clipPath>
</defs>
</svg>
